<svg width="256" height="256" viewBox="0 0 256 256" xmlns="http://www.w3.org/2000/svg" role="img" aria-labelledby="title desc">
  <title id="title">CartoBoost mark</title>
  <desc id="desc">A hexagonal spatial cell containing a boosted origin-destination route arrow.</desc>
  <defs>
    <linearGradient id="boost" x1="0" y1="0" x2="1" y2="1">
      <stop offset="0" stop-color="#00A3E0"/>
      <stop offset="1" stop-color="#7C3AED"/>
    </linearGradient>
  </defs>
  <rect width="256" height="256" rx="48" fill="#F8FAFC"/>
  <g transform="translate(36,31)">
    <polygon points="92,0 171,46 171,138 92,184 13,138 13,46" fill="#E0F2FE" stroke="#075985" stroke-width="10"/>
    <polygon points="92,29 147,61 147,123 92,155 37,123 37,61" fill="none" stroke="#38BDF8" stroke-width="5" opacity="0.85"/>
    <path d="M43 134 C69 104, 95 95, 117 73 C135 56, 146 42, 154 20" fill="none" stroke="url(#boost)" stroke-width="17" stroke-linecap="round"/>
    <path d="M132 22 L158 17 L154 45" fill="none" stroke="#7C3AED" stroke-width="14" stroke-linecap="round" stroke-linejoin="round"/>
    <circle cx="43" cy="134" r="11" fill="#075985"/>
    <circle cx="117" cy="73" r="11" fill="#075985"/>
  </g>
</svg>
